<svg width="512" height="512" viewBox="0 0 100 100" xmlns="http://www.w3.org/2000/svg">
  <rect width="100" height="100" rx="20" fill="#8b5cf6"/>
  <g transform="translate(5, 38)">
    <path d="M13.65 23.35L0 5.45V0h10.45l8.1 11.2L26.65 0H37v5.45L23.35 23.35h-9.7zM60.1 23.35c-7.55 0-12.2-4.1-12.2-11.7S52.55 0 60.1 0s12.2 4.1 12.2 11.7-4.65 11.65-12.2 11.65zm0-4.6c4.1 0 5.5-3.35 5.5-7.1s-1.4-7.1-5.5-7.1-5.5 3.35-5.5 7.1 1.4 7.1 5.5 7.1zM90 22.65h-6.25l-2.7-7.3H81v7.3h-5.4V.7h8.2c4.1 0 6.2 2.1 6.2 5.55s-2.1 5.3-5.3 5.55l3.55 10.85zm-8.55-11.2h2.5c1.9 0 2.95-.9 2.95-2.5s-1.05-2.5-2.95-2.5h-2.5v5z" fill="#FFFFFF"></path>
  </g>
</svg>